<svg xmlns="http://www.w3.org/2000/svg" width="175" height="34"><defs/><g fill="#FFF" fill-rule="evenodd"><path d="M62.447 21.988v-8.909H59.97a1.17 1.17 0 01-1.16-1.16 1.17 1.17 0 011.16-1.159h7.564c.632 0 1.16.527 1.16 1.16a1.17 1.17 0 01-1.16 1.16h-2.451v8.908a1.17 1.17 0 01-1.16 1.16h-.343a1.148 1.148 0 01-1.133-1.16m15.207-7.248c0-1.028-.79-1.66-1.845-1.66h-2.793v3.347h2.793c1.055 0 1.845-.633 1.845-1.687m-.632 7.749l-2.056-3.743h-1.924v3.11c0 .712-.58 1.292-1.291 1.292h-.053c-.712 0-1.291-.58-1.291-1.292V10.76h5.798c2.583 0 4.19 1.687 4.19 4.006 0 2.162-1.397 3.348-2.74 3.664l1.633 2.74c.527.87-.105 1.951-1.107 1.951a1.293 1.293 0 01-1.16-.632m10.464-9.093L85.56 18.72h3.848l-1.924-5.324zm3.11 8.908l-.475-1.238h-5.297l-.474 1.238c-.185.527-.66.844-1.213.844h-.184c-.896 0-1.555-.923-1.213-1.766l3.506-9.093c.369-.923 1.238-1.555 2.266-1.555a2.46 2.46 0 012.267 1.555l3.505 9.093c.316.87-.29 1.766-1.212 1.766h-.185c-.606 0-1.107-.317-1.291-.844zm12.44.053l-5.35-7.3v6.773c0 .738-.58 1.318-1.318 1.318-.738 0-1.318-.58-1.318-1.318v-9.383c0-.923.764-1.687 1.687-1.687.632 0 1.238.29 1.634.817l5.139 6.958v-6.457c0-.738.58-1.318 1.318-1.318.738 0 1.317.58 1.317 1.318v9.488c0 .87-.711 1.582-1.58 1.582-.607-.027-1.16-.29-1.53-.791m5.377-2.109c.395-.58 1.16-.685 1.74-.316.79.527 1.792.896 2.978.896 1.45 0 2.16-.632 2.16-1.37 0-2.161-7.142-.633-7.142-5.298 0-2.056 1.793-3.795 4.718-3.795 1.423 0 2.662.29 3.716.896.633.369.817 1.212.396 1.792-.37.5-1.055.633-1.582.343-.843-.501-1.792-.712-2.74-.712-1.108 0-1.74.475-1.74 1.213 0 1.95 7.116.632 7.116 5.27 0 2.267-1.634 3.98-4.955 3.98-1.792 0-3.19-.447-4.27-1.159-.659-.369-.817-1.16-.395-1.74m11.333 1.74V10.76h7.617c.632 0 1.16.527 1.16 1.16a1.17 1.17 0 01-1.16 1.16h-4.955v2.609h2.477c.633 0 1.16.527 1.16 1.16a1.17 1.17 0 01-1.16 1.16h-2.477v3.979a1.17 1.17 0 01-1.16 1.16h-.316c-.659 0-1.186-.501-1.186-1.16m10.595 1.16V10.76h7.616c.633 0 1.16.527 1.16 1.16a1.17 1.17 0 01-1.16 1.16h-4.954v2.609h2.477c.633 0 1.16.527 1.16 1.16a1.17 1.17 0 01-1.16 1.16h-2.477v2.82h4.954c.633 0 1.16.526 1.16 1.159a1.17 1.17 0 01-1.16 1.16h-7.616zm10.831 0V10.76h7.618c.632 0 1.16.527 1.16 1.16a1.17 1.17 0 01-1.16 1.16h-4.955v2.609h2.477c.633 0 1.16.527 1.16 1.16a1.17 1.17 0 01-1.16 1.16h-2.477v2.82h4.955c.632 0 1.16.526 1.16 1.159a1.17 1.17 0 01-1.16 1.16h-7.617zm18.107-8.408c0-1.028-.79-1.66-1.845-1.66h-2.794v3.347h2.794c1.054 0 1.845-.633 1.845-1.687m-.633 7.749l-2.055-3.743h-1.924v3.11c0 .712-.58 1.292-1.292 1.292h-.052c-.712 0-1.292-.58-1.292-1.292V10.76h5.798c2.583 0 4.191 1.687 4.191 4.006 0 2.162-1.397 3.348-2.741 3.664l1.634 2.74c.527.87-.105 1.951-1.107 1.951-.5.027-.922-.237-1.16-.632m10.437-9.093l-1.924 5.324h3.875l-1.95-5.324zm3.137 8.908l-.475-1.238h-5.297l-.475 1.238c-.184.527-.659.844-1.212.844h-.237c-.896 0-1.555-.923-1.213-1.766l3.506-9.093c.369-.923 1.238-1.555 2.266-1.555a2.46 2.46 0 012.267 1.555l3.505 9.093c.316.87-.29 1.766-1.212 1.766h-.185c-.553 0-1.054-.317-1.238-.844zM19.74 31.957V5.93h-3.953v26.027c0 1.081.896 1.977 1.977 1.977a1.974 1.974 0 001.976-1.977m23.72 0V8.895h-3.953v23.062a1.99 1.99 0 001.976 1.977 1.974 1.974 0 001.977-1.977M31.6 25.131v6.826c0 1.081.896 1.977 1.977 1.977a1.99 1.99 0 001.976-1.977v-4.032a3.3 3.3 0 00-2.635-3.242c-.21-.053-1.318-.322-1.318.448m-19.766-3.268V5.93H7.88v15.458c1.318.132 2.636.29 3.954.475M7.88 25.939v6.018c0 1.081.896 1.977 1.977 1.977 1.08 0 1.977-.896 1.977-1.977v-3.251a3.311 3.311 0 00-2.952-3.295c-.132-.026-1.002-.05-1.002.528M11.834 5.93c0-1.08.896-1.977 1.976-1.977s1.977.897 1.977 1.977h3.953A5.939 5.939 0 0013.81 0a5.939 5.939 0 00-5.93 5.93h3.954zm23.719 2.965c0-1.08.897-1.976 1.977-1.976s1.977.896 1.977 1.976h3.953a5.939 5.939 0 00-5.93-5.93 5.939 5.939 0 00-5.93 5.93h3.953z"/><path d="M42.406 19.886v3.98c2.714.369 5.403.817 8.065 1.344.448.08.87-.263.87-.712a3.814 3.814 0 00-3.163-3.742 189.352 189.352 0 00-5.772-.87m-28.438-.369a130.862 130.862 0 00-12.94 1.977A1.295 1.295 0 000 22.759a2.433 2.433 0 002.925 2.372c3.084-.606 6.22-1.107 9.357-1.476a2.772 2.772 0 002.477-2.767v-.66c-.026-.421-.369-.764-.79-.71m12.545-.634c-2.61 0-5.219.08-7.802.238v3.953a127.84 127.84 0 0116.762.08c1.608.131 2.979-1.16 2.979-2.795v-.29c0-.368-.29-.685-.633-.711-3.742-.29-7.511-.475-11.306-.475M14.733 6.116a.862.862 0 00-1.41-.665l-.012.01-.005.005a1.307 1.307 0 00-.128 1.9c.223.241.446.475.67.7a.518.518 0 00.885-.367V6.116zM38.008 8.67a1.313 1.313 0 00-1.738-.304c-2.624 1.652-10.049 5.364-17.584.314v3.08c2.865 1.564 5.664 2.095 8.142 2.095 1.205 0 2.336-.125 3.36-.318 3.35-.631 6.025-2.042 7.48-2.947a1.312 1.312 0 00.34-1.92"/><path d="M35.553 10.534V8.895H31.6v3.01a18.794 18.794 0 003.953-1.37M31.6 16.541v3.846c1.344.263 2.662.527 3.953.817V14.24a.587.587 0 00-.79-.549 21.6 21.6 0 01-1.335.437A2.519 2.519 0 0031.6 16.54m3.752-13.575h4.34a3.76 3.76 0 013.76 3.76v2.17h-3.034l-2.896-3.542-3.034 3.542h-2.896v-2.17a3.76 3.76 0 013.76-3.76M11.632 0h4.34a3.76 3.76 0 013.76 3.76v2.17h-3.034l-2.896-3.542-3.034 3.542H7.872V3.76A3.76 3.76 0 0111.632 0"/></g></svg>